PathFileType	4	(X/Y/Z)	C:/Users/opensim2020/Desktop/walking_exp_matlab/subject01_walking12_straight_02.trc	
DataRate	CameraRate	NumFrames	NumMarkers	Units	OrigDataRate	OrigDataStartFrame	OrigNumFrames	
100.00	100.00	5	44	mm	100.00	1277	122	
Frame#	Time	LFHD			RFHD			LBHD			RBHD			C7			T10			CLAV			STRN			RBAK			LSHO			LUPA			LELB			LFRM			LWRA			LWRB			LFIN			RSHO			RUPA			RELB			RFRM			RWRA			RWRB			RFIN			LASI			RASI			LPSI			RPSI			LTHI			LKNE			LTIB			LANK			LHEE			LTOE			RTHI			RKNE			RTIB			RANK			RHEE			RTOE			*39			*40			*41			*42			*43			
		X1	Y1	Z1	X2	Y2	Z2	X3	Y3	Z3	X4	Y4	Z4	X5	Y5	Z5	X6	Y6	Z6	X7	Y7	Z7	X8	Y8	Z8	X9	Y9	Z9	X10	Y10	Z10	X11	Y11	Z11	X12	Y12	Z12	X13	Y13	Z13	X14	Y14	Z14	X15	Y15	Z15	X16	Y16	Z16	X17	Y17	Z17	X18	Y18	Z18	X19	Y19	Z19	X20	Y20	Z20	X21	Y21	Z21	X22	Y22	Z22	X23	Y23	Z23	X24	Y24	Z24	X25	Y25	Z25	X26	Y26	Z26	X27	Y27	Z27	X28	Y28	Z28	X29	Y29	Z29	X30	Y30	Z30	X31	Y31	Z31	X32	Y32	Z32	X33	Y33	Z33	X34	Y34	Z34	X35	Y35	Z35	X36	Y36	Z36	X37	Y37	Z37	X38	Y38	Z38	X39	Y39	Z39	X40	Y40	Z40	X41	Y41	Z41	X42	Y42	Z42	X43	Y43	Z43	X44	Y44	Z44	

31	0.300	1526.30273	598.80023	1665.29016	1414.83215	580.62225	1671.13525	1513.40808	715.88910	1625.00305	1394.29834	699.99323	1629.86450	1471.28101	759.87335	1432.83777	1458.09180	804.68585	1140.36060	1468.57983	619.02991	1359.99036	1474.90967	580.32178	1204.55066	1394.84656	820.27863	1238.01367	1629.65552	676.23175	1393.03247	1721.93103	680.65387	1212.84338	1734.66956	655.51385	1061.65308	1765.87500	569.06927	987.06335	1758.53772	440.84415	931.71674	1776.64343	486.81958	897.35120	1796.37451	411.71506	865.10876	1317.07849	682.52979	1388.74829	1220.31360	761.69098	1193.90649	1217.45020	775.07159	1071.07898	1186.00610	769.48303	951.91547	1204.10815	713.34418	821.89276	1164.27893	756.43323	831.42303	1165.50977	733.51923	748.85638	1572.02173	640.99768	928.47937	1355.90479	621.10413	935.97565	1500.66528	821.57025	942.41138	1356.74927	805.66193	941.30359	1606.48938	721.59546	598.64716	1586.71716	758.00366	467.22147	1584.92773	844.53900	296.87332	1523.68604	911.50592	90.34888	1468.63245	959.00610	70.08620	1533.37390	771.60223	36.10395	1289.01453	567.97504	619.88550	1315.64404	512.17029	472.78571	1306.18579	546.73358	300.63348	1351.33301	544.90552	91.71235	1404.38672	586.12555	47.86545	1346.51306	405.21014	63.80548	1436.98560	591.99280	1704.95496	-3101.95728	1973.07129	1023.42310	-3140.72485	2012.55518	1022.14862						 
32	0.310	1525.98511	587.28918	1664.26111	1414.40955	569.26331	1669.85010	1513.39111	704.40564	1623.76843	1394.10706	688.57434	1628.40039	1471.36023	748.18481	1431.62073	1457.37524	792.99841	1139.17297	1468.71228	607.26349	1358.84216	1475.34766	568.51251	1203.38000	1394.73706	808.43835	1236.69812	1629.72351	664.48193	1392.04907	1722.36572	668.25800	1212.19458	1735.70679	642.21930	1061.13440	1766.81958	554.10681	988.35266	1759.28174	424.64520	936.09302	1777.52820	469.72784	900.63605	1797.16016	393.73276	870.17468	1317.01819	670.80682	1387.66431	1220.70349	751.26215	1193.11951	1218.01501	765.50061	1070.60840	1186.41589	761.44550	951.53754	1204.13245	706.93915	820.73315	1164.68665	749.82220	830.91144	1165.47925	728.30554	748.01270	1572.60071	630.26123	927.62579	1356.52307	608.58356	934.66028	1499.46375	810.22369	941.63672	1355.78137	793.15015	940.16986	1607.05933	715.15515	598.66510	1587.13757	753.26648	467.52524	1585.19043	842.07928	298.26944	1523.50391	910.74713	92.11078	1468.46741	958.21307	72.63181	1533.36365	771.60211	35.96952	1289.45483	559.66809	616.67950	1317.51624	501.42453	471.46793	1307.24780	527.19147	298.15228	1351.53052	512.23895	89.01558	1404.22168	550.86395	42.64518	1348.60083	370.55164	69.80360	1436.52588	580.72711	1703.72961	-3101.99634	1973.25623	1023.45551	-3140.79297	2012.46960	1022.07898						 
33	0.320	1525.53186	575.80115	1663.15833	1413.94592	557.89105	1668.63733	1513.12878	692.82019	1622.36584	1393.91272	677.11755	1626.84741	1471.30383	736.50671	1430.34900	1456.58044	781.13788	1137.85620	1468.61841	595.45612	1357.55847	1475.51343	556.73444	1202.23926	1394.52637	796.49493	1235.32776	1629.64526	652.75739	1390.98413	1722.68274	655.87195	1211.37708	1736.56799	629.08319	1060.45483	1767.61865	539.38672	989.48950	1759.90417	408.83557	940.23462	1778.35303	453.00256	903.77271	1797.88525	376.29272	875.14978	1316.93530	659.04089	1386.51270	1220.92725	740.76318	1192.33728	1218.34448	755.71185	1070.01648	1186.64441	753.07458	951.01227	1204.10632	700.14868	819.52393	1164.65796	743.24573	830.33020	1165.54456	722.71069	747.13782	1573.10852	619.38599	926.83978	1357.14172	595.81952	933.29095	1498.08618	798.74109	940.85071	1354.71533	780.39435	938.99866	1607.71423	708.40851	598.81384	1587.67871	748.10632	467.91541	1585.70898	839.23962	299.91251	1523.69458	909.88226	94.10529	1468.53467	957.40576	75.42763	1533.46143	771.54279	35.95532	1289.62244	551.81628	613.33514	1319.44897	490.51083	469.99362	1308.45691	508.05829	295.98816	1352.36670	480.78070	87.45869	1404.38464	517.51239	39.02826	1350.50037	338.45593	76.34285	1436.03723	569.40881	1702.49231	-3101.90601	1973.17371	1023.44067	-3140.74756	2012.58179	1022.17346						 
34	0.330	1524.98975	564.23505	1662.05701	1413.35327	546.53033	1667.34668	1512.93567	681.30853	1621.00684	1393.41565	665.65442	1625.26636	1471.13257	724.72345	1429.06335	1455.76648	769.18140	1136.48511	1468.56970	583.56775	1356.37622	1475.65674	544.74750	1201.01855	1394.05408	784.43292	1233.85632	1629.45874	640.98260	1389.85779	1722.84460	643.48322	1210.52832	1737.22241	616.01935	1059.64148	1768.26855	524.96558	990.44000	1760.36572	393.39212	943.99176	1779.03772	436.72284	906.65991	1798.50745	359.32095	879.81061	1316.85925	647.20715	1385.23096	1221.03333	730.28601	1191.56372	1218.50244	745.80170	1069.42297	1186.85315	744.53546	950.41675	1204.11047	693.06934	818.37347	1164.95117	735.99780	829.51892	1165.74341	716.63623	746.11212	1573.51355	608.32391	925.99921	1357.73120	582.81543	931.98193	1496.75598	787.07739	940.09314	1353.59338	767.49811	937.88434	1608.36377	701.30414	598.79163	1588.24841	742.22394	468.14731	1586.52197	836.03528	301.61194	1523.90198	908.89282	96.25023	1468.59668	956.27087	78.22990	1533.59094	771.53223	35.88626	1288.78186	543.97369	609.84833	1321.00586	479.49554	468.41791	1309.52087	489.10660	294.22205	1353.09424	452.05795	86.83219	1405.25403	486.66217	36.19843	1352.14258	309.08646	82.66256	1435.34424	558.15338	1701.12439	-3101.82861	1973.15662	1023.34674	-3140.65674	2012.48853	1022.04034						 
35	0.340	1524.37964	552.72156	1660.93542	1412.72498	535.07904	1666.09790	1512.47144	669.69183	1619.57788	1393.02991	654.10632	1623.72412	1470.77637	712.87286	1427.71069	1454.81628	757.06604	1135.06909	1468.31555	571.60797	1355.12952	1475.78235	532.61920	1200.09448	1393.45068	772.24847	1232.36267	1629.24219	629.22491	1388.72742	1723.02124	631.22864	1209.68689	1737.74731	603.20721	1058.76489	1768.85986	510.86707	991.27368	1760.77051	378.39532	947.45947	1779.59851	420.90982	909.28497	1799.01135	342.89703	884.17944	1316.42285	635.33105	1383.99988	1220.95911	719.51703	1190.73816	1218.78564	735.84772	1068.68762	1187.05481	735.82465	949.81683	1203.89600	685.32971	817.17523	1164.96997	728.61383	828.80884	1165.68494	710.01587	745.04926	1573.84534	597.12030	925.10480	1358.35962	569.69232	930.59924	1495.28259	775.22870	939.28931	1352.38806	754.38660	936.77008	1608.85889	693.67499	598.64502	1588.84680	735.79059	468.39050	1587.12036	832.06812	303.13535	1524.50122	907.91711	98.78676	1469.12634	955.29254	81.50048	1533.65479	771.34082	35.89553	1287.59607	535.63470	606.62421	1322.33655	468.37314	466.70670	1310.53552	470.80557	292.90277	1354.70215	425.75696	87.35556	1406.30994	458.30191	34.91122	1354.01611	282.50269	88.71313	1434.72766	546.77020	1699.88245	-3101.98950	1973.02258	1023.74512	-3140.61084	2012.52307	1022.16821						 
